<svg width="520" height="121" viewBox="0 0 520 121" fill="none" xmlns="http://www.w3.org/2000/svg">
<path d="M27.391 1L1 33.4658V121H519V57.8918L507.953 61.6679L492.609 61.6678L474.81 64.9039L463.763 55.7344L448.419 48.7226L433.69 55.7346L424.483 47.2329L413.436 42.3014L398.092 54.4247L380.908 61.6678L366.791 54.4247L351.239 45.4863L337.945 48.7226L317.692 42.3014L294.983 38.3973L285.163 33.4658L273.502 42.3014L255.09 38.3973L233.609 42.3014L215.81 47.2329L207.218 54.4247L183.282 42.3014L172.848 47.2329L161.801 42.3014L148.299 47.2329L135.41 50.726L115.156 47.2329L93.6753 18.6712L80.173 6.1113L40.8934 14.7414L27.391 1Z" fill="url(#paint0_linear_39_1815)"/>
<path d="M1 33.0851L27.391 1L40.8934 14.3475L80.173 6.33901L93.6753 18.4409L115.156 46.7123L135.41 50.1699L148.299 46.7123L161.801 41.8309L172.848 46.7123L183.282 41.8309L207.218 53.8309L215.81 46.7123L233.609 41.8309L255.09 37.9665L273.502 41.8309L285.163 33.0851L294.983 37.9665L317.692 41.8309L337.945 48.5173L351.239 44.7798L370.369 55.9918L380.908 61.3305L398.092 53.8309L413.045 41.8309L424.483 46.7123L433.69 55.9918L448.419 48.5172L463.763 55.9918L474.81 64L492.609 61.3305H507.953L519 57.5932" stroke="#F902F8" stroke-linecap="round" stroke-linejoin="round"/>
<defs>
<linearGradient id="paint0_linear_39_1815" x1="229.861" y1="126.345" x2="229.861" y2="30.4828" gradientUnits="userSpaceOnUse">
<stop stop-color="#E7F4FE" stop-opacity="0"/>
<stop offset="1" stop-color="#FA03FA" stop-opacity="0.15"/>
<stop offset="1" stop-color="#FA03FA" stop-opacity="0.62"/>
</linearGradient>
</defs>
</svg>
