<?xml version="1.0" encoding="UTF-8"?>
<!DOCTYPE svg PUBLIC "-//W3C//DTD SVG 1.1//EN" "http://www.w3.org/Graphics/SVG/1.1/DTD/svg11.dtd">
<!-- Creator: CorelDRAW (Evaluation Version) -->
<svg xmlns="http://www.w3.org/2000/svg" xml:space="preserve" width="366.659mm" height="84.2561mm" version="1.1" style="shape-rendering:geometricPrecision; text-rendering:geometricPrecision; image-rendering:optimizeQuality; fill-rule:evenodd; clip-rule:evenodd"
viewBox="0 0 36663.74 8425.12"
 xmlns:xlink="http://www.w3.org/1999/xlink"
 xmlns:xodm="http://www.corel.com/coreldraw/odm/2003">
 <defs>
  <style type="text/css">
   <![CDATA[
    .fil0 {fill:#00006A;fill-rule:nonzero}
    .fil1 {fill:url(#id0)}
   ]]>
  </style>
  <linearGradient id="id0" gradientUnits="userSpaceOnUse" x1="3588.63" y1="8425.12" x2="3588.63" y2="187.56">
   <stop offset="0" style="stop-opacity:1; stop-color:#00006A"/>
   <stop offset="1" style="stop-opacity:1; stop-color:#F902F8"/>
  </linearGradient>
 </defs>
 <g id="Layer_x0020_1">
  <metadata id="CorelCorpID_0Corel-Layer"/>
  <g id="_2017209781808">
   <polygon class="fil0" points="8016.23,2048.07 8529.75,2048.07 8529.75,5195.93 10475.98,5195.93 10475.98,5642.71 8016.23,5642.71 "/>
   <path class="fil0" d="M13495.32 2921.07l0 2721.64 -467.3 0 0 -410.87c-200.26,282.46 -539.21,441.66 -924.32,441.66 -703.52,0 -1170.82,-385.16 -1170.82,-1186.2l0 -1566.24 492.99 0 0 1509.72c0,534.08 267.01,801.05 734.27,801.05 513.53,0 842.2,-318.36 842.2,-903.75l0 -1407.03 492.98 0z"/>
   <path class="fil0" d="M14183.19 4281.87c0,-811.31 600.82,-1386.51 1437.87,-1386.51 487.84,0 893.48,200.31 1109.17,580.31l-374.85 241.33c-174.59,-267.05 -441.62,-390.27 -739.48,-390.27 -534.08,0 -934.58,374.89 -934.58,955.14 0,590.53 400.5,960.25 934.58,960.25 297.85,0 564.89,-123.21 739.48,-390.26l374.85 236.25c-215.69,379.97 -621.32,585.38 -1109.17,585.38 -837.04,0 -1437.87,-580.26 -1437.87,-1391.62z"/>
   <polygon class="fil0" points="18388.8,4374.29 17823.92,4898.08 17823.92,5642.7 17330.97,5642.7 17330.97,1832.38 17823.92,1832.38 17823.92,4276.76 19308,2921.06 19903.67,2921.06 18758.54,4045.67 20016.62,5642.7 19410.69,5642.7 "/>
   <path class="fil0" d="M22758.66 2921.07l-1319.75 2993.8c-241.37,575.15 -554.62,754.89 -970.56,754.89 -261.89,0 -528.9,-87.31 -698.37,-251.63l210.54 -369.77c133.52,128.4 302.94,200.3 487.83,200.3 236.26,0 385.15,-107.87 518.67,-421.1l87.27 -190 -1201.58 -2716.49 513.44 0 950.06 2177.32 939.69 -2177.32 482.76 0z"/>
   <polygon class="fil0" points="25901.2,5195.93 25901.2,5642.71 23292.51,5642.71 23292.51,2048.07 25829.31,2048.07 25829.31,2494.81 23806.03,2494.81 23806.03,3598.89 25608.48,3598.89 25608.48,4035.37 23806.03,4035.37 23806.03,5195.93 "/>
   <path class="fil0" d="M26660.99 2921.06l492.96 0 0 2721.64 -492.96 0 0 -2721.64zm-87.31 -842.19c0,-179.74 143.76,-323.48 333.8,-323.48 189.96,0 333.78,138.63 333.78,313.25 0,184.85 -138.64,328.63 -333.78,328.63 -190.04,0 -333.8,-138.67 -333.8,-318.4z"/>
   <path class="fil0" d="M30214.38 4209.98c0,-528.9 -390.25,-883.25 -934.57,-883.25 -549.47,0 -939.73,354.35 -939.73,883.25 0,523.79 390.26,888.41 939.73,888.41 544.32,0 934.57,-364.62 934.57,-888.41zm482.76 -1288.92l0 2351.91c0,960.29 -487.87,1396.77 -1412.19,1396.77 -498.09,0 -1001.38,-138.67 -1299.22,-405.68l236.25 -380.04c251.64,215.72 647,354.35 1047.57,354.35 641.88,0 934.62,-297.83 934.62,-914.05l0 -215.72c-236.25,282.46 -590.57,421.1 -980.83,421.1 -785.7,0 -1381.38,-534.05 -1381.38,-1319.72 0,-785.67 595.68,-1314.61 1381.38,-1314.61 405.65,0 775.42,148.91 1006.47,446.75l0 -421.07 467.34 0z"/>
   <path class="fil0" d="M34219.58 4076.46l0 1566.24 -492.96 0 0 -1509.73c0,-534.08 -267.04,-795.97 -734.35,-795.97 -523.78,0 -862.69,313.29 -862.69,903.78l0 1401.93 -492.98 0 0 -3810.32 492.98 0 0 1473.81c205.43,-261.89 544.32,-410.83 960.26,-410.83 662.41,0 1129.73,380.04 1129.73,1181.09z"/>
   <path class="fil0" d="M36663.74 5483.49c-148.94,128.37 -374.88,190 -595.68,190 -549.5,0 -862.72,-302.95 -862.72,-852.42l0 -1494.34 -462.15 0 0 -405.64 462.15 0 0 -595.68 492.98 0 0 595.68 780.53 0 0 405.64 -780.53 0 0 1473.81c0,292.69 154.02,457 426.22,457 143.75,0 282.42,-46.21 385.12,-128.37l154.08 354.32z"/>
   <path class="fil1" d="M-0 3580.56l680.75 680.75 -636.52 636.5 3527.29 3527.3 2871.07 -2871.07 -619.42 -619.41 1354.1 -1354.07 -999.97 -999.93 -3263.94 3263.86 -290.3 -290.33 3263.87 -3263.86 -999.89 -1000.02 -3263.95 3263.94 -295.04 -295.1 112.43 -112.39 -3.32 -3.29 3143.38 -3143.45 -999.94 -999.98 -3580.59 3580.56zm645.17 0l2935.42 -2935.42 354.8 354.84 -2935.38 2935.42 -354.84 -354.84zm1306.36 1290.27l2935.5 -2935.38 354.83 354.84 -2935.49 2935.38 -354.84 -354.84zm1290.3 1290.31l2935.46 -2935.42 354.8 354.83 -2935.42 2935.38 -354.84 -354.79zm-2552.47 -1263.34l316.09 -316.12 2587.23 2587.27 322.58 -322.55 -1.95 -1.94 1587.3 -1587.26 296.8 296.83 -2225.9 2225.9 -2882.15 -2882.13z"/>
  </g>
 </g>
</svg>
